PathFileType	4	(X/Y/Z)	Patient4_TMGait_0pt8_01_left_11.trc.trc
DataRate	CameraRate	NumFrames	NumMarkers	Units	OrigDataRate	OrigDataStartFrame	OrigNumFrames
86.419753086420	86.419753086420	6	33	mm	86.419753086420	36	       141
Frame#	Time	Sacral			L.Shoulder			Chest			R.Shoulder			Neck			R.ASIS			L.ASIS			R.Thigh.Superior			R.Thigh.Lateral			R.Thigh.Inferior			R.Patella			L.Thigh.Superior			L.Thigh.Lateral			L.Thigh.Inferior			L.Patella			L.Shank.Superior			L.Shank.Lateral			L.Shank.Inferior			R.Shank.Superior			R.Shank.Lateral			R.Shank.Inferior			R.Heel			R.Midfoot.Superior			R.Midfoot.Lateral			R.Toe			L.Heel			L.Midfoot.Lateral			L.Midfoot.Superior			L.Toe			L.Elbow			L.Wrist			R.Elbow			R.Wrist			
		X1	Y1	Z1	X2	Y2	Z2	X3	Y3	Z3	X4	Y4	Z4	X5	Y5	Z5	X6	Y6	Z6	X7	Y7	Z7	X8	Y8	Z8	X9	Y9	Z9	X10	Y10	Z10	X11	Y11	Z11	X12	Y12	Z12	X13	Y13	Z13	X14	Y14	Z14	X15	Y15	Z15	X16	Y16	Z16	X17	Y17	Z17	X18	Y18	Z18	X19	Y19	Z19	X20	Y20	Z20	X21	Y21	Z21	X22	Y22	Z22	X23	Y23	Z23	X24	Y24	Z24	X25	Y25	Z25	X26	Y26	Z26	X27	Y27	Z27	X28	Y28	Z28	X29	Y29	Z29	X30	Y30	Z30	X31	Y31	Z31	X32	Y32	Z32	X33	Y33	Z33	

36	11.885000000000	865.900994725997	1000.460244378744	490.192523972164	1012.376448364276	1426.695367972276	312.134339607342	1135.524096230573	1356.106178700062	458.563836191958	1071.087153239314	1426.236158208037	642.329993572217	1012.382459492987	1482.726110749075	471.279546455225	1093.090119090744	921.709423850536	592.890572116209	1067.815313584101	951.118087358357	320.505313291901	1075.472661954641	708.215488681823	573.978877999358	963.728734255918	623.861837538679	638.027720591503	1024.017688644217	548.033260323248	565.675274607436	992.533405562213	452.421812456519	579.974444054375	1145.384304790677	766.869164606086	357.629269175392	1089.012099700203	636.093759152201	288.137581203548	1188.539814687470	575.615843952707	352.055443991468	1204.584653352338	504.219365106949	357.329022691287	1184.803998105138	428.253493834951	349.929566567810	1108.257898056404	304.915898870169	300.870645728223	1173.668187896874	199.266831790726	367.788637505324	922.325160004567	385.901888003127	588.949395346712	807.599290930664	331.630266011352	648.880756628952	805.969461158582	221.952811972515	596.594230481535	613.200823793252	117.142729004762	565.097172383219	791.216811434158	107.181831873739	607.090418406444	684.996967999728	71.868738905830	636.047644356285	882.819713614961	36.117496385889	627.499300275791	1060.758444087548	38.801491781756	411.375181914544	1132.251653104977	36.978539846988	328.281837526994	1216.396785793752	97.821540254762	353.140172664571	1343.669328331182	44.851016537280	320.593858020992	875.547319959774	1101.393748319847	222.689833055475	813.341858451525	850.200108339004	234.557074028734	1197.414502711454	1106.721503409998	747.443724048810	1416.193901471850	1211.707648843293	688.327311324388	
37	11.896571428571	866.741451282881	1002.158868192100	486.546902627650	1013.317985186473	1429.183568709672	310.320005601688	1136.067796128489	1358.258499518889	456.897095518423	1070.894691844882	1427.633767968559	640.652733879086	1012.842465354707	1484.611664757406	469.610089973822	1093.990656027045	923.624957362646	589.293302192182	1069.223141259184	953.391841279429	317.150903510384	1079.195619999122	710.159254822575	571.561440659275	968.928799123431	624.490367704449	635.899681971551	1031.100028108870	548.835685192481	564.417410552772	1000.246963653750	451.737638167046	580.356846220906	1145.968008664052	767.301052456630	353.810435912864	1087.053762110847	636.312151960806	286.301152827013	1186.189479342383	574.977054854092	349.913788056137	1201.469527830512	503.661076520380	356.216827036275	1180.781731789041	427.715356271059	349.089595496041	1102.790141927415	305.254302352817	300.268280573676	1166.463663244389	198.978379670706	367.670585706105	927.652521226247	386.379131030874	589.304840047866	810.711329594846	336.417055608149	648.703881390831	806.373287962141	226.086207953661	598.030373611476	610.372904002423	129.479418967310	566.807270721538	787.405905778177	109.266442814167	608.766310262460	679.446065965388	79.325191406837	637.052073264845	873.847966723251	35.500878638097	627.571046427163	1051.631891323387	38.798715462270	411.244309361267	1123.133838307386	37.109419562548	328.211035671189	1207.246715403094	98.026560088641	353.131970525861	1334.520023478557	44.852609174615	320.409348261616	881.584993131973	1101.525959749976	218.952321714725	827.513287008041	848.238103261765	229.252309072917	1188.199453120186	1103.617757867557	746.040833282589	1410.876651746625	1201.043577462874	688.985789899424	
38	11.908142857143	867.450165829472	1003.793156112987	482.966169829744	1014.343318751201	1431.671029000219	308.428067833289	1136.518716762076	1360.386684394304	455.280888936901	1070.412880199217	1429.006894522832	638.943780753364	1013.166797771215	1486.466827633825	467.856004195712	1094.768477380357	925.580396218703	585.880916026389	1070.533955890656	955.512560695331	313.970604187135	1083.311559588312	712.170652281729	569.316852774144	974.718004333716	624.985818806974	633.871631896131	1038.845260995739	549.667157812492	563.154138293071	1008.709967526582	451.115289724737	580.539977992200	1146.141710652022	767.266480379739	349.970944807701	1084.394970463462	636.281606285599	284.568346231042	1183.160984117662	574.095657329972	347.836874270210	1197.643278217699	502.946214709811	355.100818236201	1176.097389984952	427.089563108559	348.200459094056	1096.721749604001	305.415093471667	299.773208332148	1158.984582377083	198.654050451107	367.529801958652	933.837552113169	386.891593312966	589.470450295513	814.891639936337	341.326476344660	648.490154780628	807.649189985315	230.516122068058	599.355735543976	608.841343524098	142.832745855288	568.493712904704	784.151404234670	111.782899142328	610.375857219966	674.704602233210	87.821994524204	638.081661903553	864.884790623598	34.592189225483	627.737695077339	1042.472019612350	38.781931174477	411.186699742368	1113.968137427546	37.182345073626	328.198302902176	1198.066448568687	98.155781679516	353.158792021897	1325.342942675565	44.766555872491	320.266604285629	887.701217161429	1101.786936714460	215.077815635116	842.797469410600	846.476197436939	223.736365705247	1178.450600703201	1100.700272831053	744.478048088202	1405.760034692012	1188.173836918790	689.922517682934	
39	11.919714285714	868.021006013559	1005.299490148754	479.506514266088	1015.467453114950	1434.061982840822	306.456518913328	1136.885850421848	1362.407786468846	453.723748400521	1069.669042011009	1430.303690177399	637.209513787138	1013.361848885465	1488.237773142943	466.009588540440	1095.384358600330	927.501378368740	582.692068793366	1071.694370565399	957.429062032836	310.994200291064	1087.764810145230	714.221865534329	567.214260966268	981.085083945246	625.340847327451	631.944770967757	1047.180322985976	550.532486667670	561.819064741272	1017.855501136324	450.557170687888	580.423282882323	1145.898401186601	766.838079023368	346.251063961701	1081.245336597662	636.118986114315	282.888081645966	1179.565908249209	573.061964744186	345.867035877733	1193.203547218519	502.118400743219	353.958387929900	1170.857567178235	426.398529502395	347.251894397180	1090.177148229568	305.434339327143	299.298350607505	1151.281044853546	198.296395290885	367.341212473704	940.823697274149	387.454201715612	589.357890447901	820.131263180115	346.310614258751	648.202969781313	809.792259636448	235.226708039085	600.483301889869	608.713602023664	157.084582477816	570.089145757513	781.516004615645	114.822968739561	611.866688820155	670.910281485664	97.351426238763	639.098882189468	856.001505911549	33.373979654622	627.995708652614	1033.274859701127	38.764296142632	411.171566433896	1104.756672219277	37.200392084034	328.214402191665	1188.871806390577	98.196408033549	353.198167588134	1316.147164022502	44.567474632190	320.161207892585	893.924649307297	1102.083574677973	211.054217503543	859.141482886426	844.940923191701	218.037278380212	1168.315024832222	1097.984044508179	742.738659462419	1400.662922689772	1173.151509568399	691.121417123266	
40	11.931285714286	868.442667149128	1006.632953636083	476.209449649380	1016.684282212596	1436.273527424043	304.416712059690	1137.174799503113	1364.252286733213	452.233028405783	1068.704222664961	1431.479918086927	635.463359245514	1013.439949628170	1489.883649253432	464.074082232591	1095.797889067640	929.329670891836	579.747275321301	1072.655692472799	959.108808824488	308.232635706331	1092.479975172412	716.306288220797	565.203223215660	988.005470273577	625.575999515872	630.114724468483	1056.019471711144	551.461452193371	560.345531339209	1027.621954015876	450.084526387240	579.940263163609	1145.248564382345	766.115797652070	342.767666456044	1077.795859591680	635.923208103632	281.222403341576	1175.526554376840	571.958278784614	344.030219065535	1188.269448160722	501.222008759027	352.780084132542	1165.183510173210	425.664864888076	346.242909379664	1083.280980182684	305.352495020570	298.783902584821	1143.405309492252	197.911816194653	367.089614985720	948.553093198087	388.098562124790	588.908102642960	826.402338434289	351.330659409087	647.807394252562	812.802000639908	240.198205224326	601.335727108264	610.065537831519	172.051589170538	571.522309513744	779.593349578540	118.454114395598	613.184974874529	668.209919344811	107.839455276081	640.058053138444	847.329311683976	31.882054148780	628.324264424843	1024.043146576849	38.753905620349	411.171784085788	1095.506124352393	37.172781653781	328.234013599579	1179.671940116408	98.154497542953	353.229342180558	1306.938594282199	44.264728274482	320.081401565846	900.310465100932	1102.323932394237	206.863808309991	876.504594279852	843.656935393314	212.187282554394	1157.929345226842	1095.464183295039	740.822248765517	1395.340338249787	1156.076927479424	692.562675826250	
41	11.942857142857	868.697796939501	1007.771050585195	473.097022207443	1017.966700935069	1438.241645870829	302.330682034862	1137.386279830500	1365.870305709482	450.813634260917	1067.564754553731	1432.502425547116	633.723422364710	1013.417881046685	1491.377553117568	462.061182284041	1095.971692545214	931.025895745770	577.052848433779	1073.382958384490	960.536964237704	305.683983917203	1097.371221113967	718.437098530182	563.222693930736	995.440890429486	625.736999958682	628.371658242562	1065.270470850877	552.505541094290	558.675123158048	1037.955537290750	449.738234966162	579.060577870092	1144.223623930543	765.205300609208	339.600796541007	1074.192299382167	635.762040912177	279.555582701532	1171.158431534587	570.846722845361	342.336942880390	1182.961991787633	500.293954251169	351.573762703383	1159.193452307780	424.907659820712	345.184274297122	1076.144155047584	305.207512577994	298.201204036969	1135.405437494587	197.507562571068	366.772338628129	956.972841760762	388.867498153063	588.095481237337	833.660900464937	356.354895093998	647.269866540595	816.686528083282	245.401297605810	601.849738008021	612.931653622405	187.477301869491	572.719503280555	778.507387471230	122.702080420436	614.272095451134	666.752295982669	119.133401579526	640.904449995772	839.075892582507	30.217030590763	628.684512360978	1014.783560791563	38.754118542995	411.167057349013	1086.225448103094	37.111809003545	328.238840436101	1170.471008270740	98.047201961237	353.237523334638	1297.720774977856	43.887631607043	320.013349907919	906.931076787477	1102.430782669975	202.487860962274	894.851137157180	842.656481255914	206.225629920642	1147.411412036538	1093.124502174758	738.743038443067	1389.498552542615	1137.106509121931	694.218871797968	
